<!-- Generated by IcoMoon.io -->
<svg version="1.1" xmlns="http://www.w3.org/2000/svg" width="32" height="32" viewBox="0 0 32 32">
<path d="M0.458 11.214c1.745 2.74 4.141 5.656 7.682 5.563 2.344-0.156 5.427 0.51 6.125 3.109 0.714 1.974-1.885 4.526-3.458 2.563-0.245-0.422-0.094-0.682 0.396-0.74 2.286 0.047 3.078-2.563 0.911-3.464-1.854-0.224-3.536 1.208-5.323 1.62-4.979 1.438-7.99-4.484-6.333-8.651zM23.115 16.766c-2.417-0.167-5.599 1.286-5.432 4.078-0.010 0.651 0.26 1.271 0.74 1.703 0.484 0.438 1.135 0.635 1.776 0.552 0.724 0.026 1.656-1.25 0.672-1.401-3.703 0-2.333-4.802 0.792-3.203 1.635 0.943 3.474 1.479 5.354 1.573 4.115-0.406 5.88-5.26 4.547-8.823-1.99 2.979-4.474 5.938-8.448 5.521zM17.583 15c1.786-0.38 3.505-1.042 5.089-1.969 2.448-1.38 3.839-4.094 3.521-6.891-0.313-2.797-2.271-5.135-4.969-5.938 2.578 5.161 1.036 11.427-3.641 14.797zM14.51 14.969c-4.766-3.313-6.344-9.646-3.688-14.807-2.474 0.729-4.344 2.755-4.88 5.276s0.354 5.135 2.313 6.807c1.865 1.318 3.958 2.276 6.172 2.823zM26.724 14.766c-2.615 1.495-5.932 0.828-8.349 2.781-1.167 0.641-1.88 1.88-1.849 3.208 0.036 1.333 0.813 2.536 2.010 3.115 0.536 0.229 1.057 0.474 1.578 0.036 0.505-0.385 0.911-0.375 1.641-0.031-2.521 2.156-4.49 4.885-5.74 7.958-1.271-3.068-3.245-5.786-5.766-7.948 0.49-0.37 1.167-0.37 1.656 0 1.375 0.792 3.302-0.911 3.557-2.286 0.563-2.693-2.141-4.813-4.531-5.323-1.172-0.276-2.37-0.417-3.542-0.688-5.411-1.104-6.224-6.583-3.578-10.776 1.531 11.198 9.146 8.125 12.188 14.307 3.021-6.104 10.693-3.156 12.219-14.307 1.854 3.234 2.411 8.047-1.495 9.953zM17.302 26.63l-1.302-0.87-1.307 0.88 1.328 2.224zM16 23.172c-0.417 1-1.25 1.76-2.286 2.078 0.813 0.271 1.703 0.026 2.266-0.62 0.974 0.75 1.818 0.953 2.391 0.583-1.063-0.281-1.938-1.031-2.37-2.042z"></path>
</svg>
