<!-- Generated by IcoMoon.io -->
<svg version="1.1" xmlns="http://www.w3.org/2000/svg" width="32" height="32" viewBox="0 0 32 32">
<path d="M17.724 3.779l3.755 3.755 4.406-4.406-0.057-2.552c0.010-0.281 0.24-0.505 0.521-0.505h5.031c0.135 0 0.271 0.057 0.37 0.156 0.094 0.094 0.151 0.229 0.151 0.37-0.276 6.078 1.271 5.615-3.057 5.484l-4.417 4.401 3.755 3.76c0.203 0.203 0.203 0.531 0 0.734-2.667 2.766-1.771 2.073-4.323-0.24l-16.344 16.333c-0.193 0.193-0.448 0.307-0.719 0.318-2.234 0.333-4.49 0.516-6.75 0.542 0.021-2.26 0.203-4.516 0.542-6.75 0-0.276 0.115-0.536 0.307-0.729l16.333-16.349-1.917-1.917c-0.203-0.208-0.203-0.536 0-0.74l1.677-1.667c0.203-0.203 0.531-0.203 0.734 0z"></path>
</svg>
