<!-- Generated by IcoMoon.io -->
<svg version="1.1" xmlns="http://www.w3.org/2000/svg" width="32" height="32" viewBox="0 0 32 32">
<path d="M29.24 11.536l0.615 0.615-5.854 4.161-7.385-8.625 1.849-1.849-2.464-3.083-2.464 3.083 1.849 1.849-7.385 8.625-5.854-4.161 0.615-0.615-2.76-2.005 6.76 16.021 9.24 3.693 9.24-3.693 6.76-16.021zM19.958 20.729l-2.036 0.344c-0.604 0.099-1.094 0.547-1.245 1.141l-0.568 2.286c-0.010 0.052-0.057 0.089-0.109 0.089s-0.099-0.036-0.109-0.089l-0.568-2.286c-0.151-0.594-0.641-1.042-1.245-1.141l-2.036-0.344c-0.063 0-0.115-0.047-0.115-0.115 0-0.063 0.052-0.109 0.115-0.109l2.036-0.344c0.604-0.099 1.094-0.547 1.245-1.141l0.568-2.286c0.010-0.052 0.057-0.089 0.109-0.089s0.099 0.036 0.109 0.089l0.568 2.286c0.151 0.594 0.641 1.042 1.245 1.141l2.036 0.344c0.063 0 0.115 0.047 0.115 0.109 0 0.068-0.052 0.115-0.115 0.115z"></path>
</svg>
