<!-- Generated by IcoMoon.io -->
<svg version="1.1" xmlns="http://www.w3.org/2000/svg" width="32" height="32" viewBox="0 0 32 32">
<path d="M16.104 0.432c-2.802 0-5.385 0.714-7.604 1.958l8.26 3.188 6.479-3.37c-2.135-1.13-4.563-1.776-7.135-1.776zM3.432 7.026c-1.729 2.516-2.729 5.568-2.729 8.854 0 2.115 0.432 4.13 1.214 5.969l3.661-8.125zM30.016 9.307l-3.594 7.453 2.464 7.682c1.646-2.453 2.609-5.401 2.609-8.563 0-2.344-0.531-4.573-1.479-6.573zM16.76 26.422l-7.109 3.432c1.964 0.911 4.151 1.422 6.453 1.422 3.036 0 5.865-0.891 8.255-2.417z"></path>
<path d="M0 32l8-17.745-3.49-10.911 12.073 4.656 15.417-8-8 16.583 3.49 10.906-10.906-3.49-16.583 8z"></path>
</svg>
