<!-- Generated by IcoMoon.io -->
<svg version="1.1" xmlns="http://www.w3.org/2000/svg" width="32" height="32" viewBox="0 0 32 32">
<path d="M2.677 8.328c0 0 3.047 4.693 4.214 7.229 0.12-0.453 0.214-0.911 0.281-1.375 2.604-0.323 5.245 0.078 7.63 1.156-2.13-1.531-3.792-3.625-4.813-6.042 0.365-0.292 0.719-0.604 1.052-0.932-2.781 0.255-8.365-0.036-8.365-0.036zM12.401 13.943c-1.682-0.708-3.469-1.135-5.286-1.26-0.057-0.703-0.203-1.396-0.443-2.057 0.693-0.125 1.365-0.339 2.005-0.641 1.010 1.521 2.271 2.854 3.724 3.958zM2.677 23.672c0 0 3.047-4.693 4.214-7.229 0.12 0.453 0.214 0.911 0.281 1.375 2.604 0.323 5.245-0.078 7.63-1.156-2.13 1.531-3.792 3.625-4.813 6.042 0.365 0.292 0.719 0.604 1.052 0.932-2.781-0.255-8.365 0.036-8.365 0.036zM12.401 18.057c-1.682 0.708-3.469 1.135-5.286 1.26-0.057 0.703-0.203 1.396-0.443 2.057 0.693 0.125 1.365 0.339 2.005 0.641 1.010-1.521 2.271-2.854 3.724-3.958zM16 31.432c0 0-2.536-4.979-4.151-7.26 0.453 0.125 0.901 0.271 1.339 0.443 1.578-2.094 2.552-4.578 2.813-7.182 0.26 2.604 1.234 5.094 2.813 7.182 0.438-0.172 0.875-0.318 1.323-0.443-1.604 2.281-4.135 7.26-4.135 7.26zM16 20.203c-0.219 1.813-0.745 3.578-1.542 5.219 0.578 0.401 1.099 0.875 1.552 1.417 0.453-0.542 0.979-1.016 1.557-1.417-0.807-1.641-1.339-3.406-1.568-5.219zM29.323 23.672c0 0-3.047-4.693-4.214-7.229-0.12 0.453-0.214 0.911-0.281 1.375-2.599 0.323-5.24-0.078-7.63-1.156 2.13 1.531 3.797 3.625 4.818 6.042-0.37 0.292-0.719 0.599-1.052 0.932 2.781-0.255 8.359 0.036 8.359 0.036zM19.599 18.057c1.682 0.708 3.469 1.135 5.286 1.26 0.057 0.703 0.203 1.396 0.443 2.057-0.693 0.125-1.37 0.339-2.005 0.641-1.016-1.516-2.271-2.854-3.724-3.958zM29.323 8.328c0 0-3.047 4.693-4.214 7.229-0.12-0.453-0.214-0.911-0.281-1.375-2.599-0.323-5.24 0.078-7.63 1.156 2.13-1.531 3.797-3.625 4.818-6.042-0.37-0.292-0.719-0.599-1.052-0.932 2.781 0.255 8.359-0.036 8.359-0.036zM19.599 13.943c1.682-0.708 3.469-1.135 5.286-1.26 0.057-0.703 0.203-1.396 0.443-2.057-0.693-0.125-1.37-0.339-2.005-0.641-1.016 1.516-2.271 2.854-3.724 3.958zM16 0.568c0 0-2.536 4.979-4.151 7.26 0.453-0.125 0.901-0.271 1.339-0.443 1.578 2.094 2.552 4.578 2.813 7.182 0.26-2.604 1.234-5.094 2.813-7.182 0.438 0.172 0.875 0.318 1.323 0.443-1.604-2.281-4.135-7.26-4.135-7.26zM16 11.797c-0.219-1.813-0.745-3.578-1.542-5.219 0.578-0.401 1.099-0.875 1.552-1.417 0.453 0.542 0.979 1.016 1.557 1.417-0.807 1.641-1.339 3.406-1.568 5.219zM18.521 18.318l-0.156 1.802-1.641-0.766h-1.458l-1.635 0.766-0.151-1.802-0.729-1.271-1.484-1.036 1.484-1.036 0.729-1.266 0.156-1.802 1.641 0.766h1.464l1.641-0.766 0.156 1.802 0.729 1.26 1.484 1.036-1.484 1.036z"></path>
</svg>
