<!-- Generated by IcoMoon.io -->
<svg version="1.1" xmlns="http://www.w3.org/2000/svg" width="32" height="32" viewBox="0 0 32 32">
<path d="M30.724 1.661c0-0.266-0.156-0.51-0.401-0.615-0.932-0.391-4.031-1.047-14.323-1.047s-13.385 0.656-14.318 1.047c-0.25 0.104-0.406 0.349-0.406 0.615v17.005c0 0.365 0.099 0.724 0.286 1.036 3.609 5.943 12.224 11.099 14.083 12.203 0.208 0.125 0.474 0.125 0.682 0 1.807-1.104 10.422-6.146 14.104-12.193 0.188-0.313 0.286-0.677 0.286-1.042zM16 27.354c0.135 0.031-8.135-4.609-11.026-9.984v-13.792c0 0 0-1.036 11.026-1.036z"></path>
</svg>
