<!-- Generated by IcoMoon.io -->
<svg version="1.1" xmlns="http://www.w3.org/2000/svg" width="32" height="32" viewBox="0 0 32 32">
<path d="M16 2.307l-1.76 2.786c-0.573 0.906-0.484 2.083 0.214 2.896l1.547 1.802 1.547-1.802c0.698-0.813 0.786-1.99 0.214-2.896zM2.505 7.88l0.484 1.708c0.255 0.891 1.12 1.458 2.036 1.333l1.339-0.188-0.161-1.281c-0.109-0.828-0.797-1.453-1.625-1.49zM29.495 7.88l-2.073 0.083c-0.833 0.036-1.521 0.661-1.625 1.49l-0.161 1.281 1.339 0.188c0.917 0.125 1.781-0.443 2.036-1.333zM11.271 8.552c-2.583 0-6.708 2.286-6.708 7.484 0 0.521 0.042 1.042 0.125 1.557l-0.771-0.552c-0.432-0.318-1.016-0.318-1.448 0l-1.068 0.786 1.021 0.667c0.453 0.307 1.063 0.266 1.474-0.094l0.807-0.698c0.708 3.995 3.896 5.75 5.708 6.62 2.047 0.979 5.589 3 5.589 5.375 0-2.375 3.542-4.396 5.589-5.375 1.813-0.87 4.995-2.62 5.708-6.609l0.797 0.693c0.417 0.365 1.026 0.401 1.484 0.094l1.016-0.672-1.073-0.786c-0.432-0.318-1.016-0.318-1.448 0l-0.76 0.557-0.078 0.052 0.078-0.057c0.083-0.516 0.125-1.031 0.125-1.552 0-5.198-4.125-7.484-6.708-7.484-1.948 0-3.359 1.161-3.932 1.74-0.177 0.172-0.203 0.443-0.068 0.646l0.411 0.635c0.047 0.068 0.12 0.109 0.198 0.115s0.156-0.031 0.208-0.094c0.536-0.677 2.156-2.255 4.979-1.203 2.104 0.786 3.427 2.75 3.427 5.089 0 2.344-1.443 5.75-5.234 7.156-3.792 1.401-4.719 3.672-4.719 3.672s-0.927-2.271-4.719-3.672c-3.792-1.406-5.234-4.813-5.234-7.156 0-2.339 1.318-4.302 3.427-5.094 2.823-1.052 4.443 0.526 4.979 1.203 0.052 0.063 0.13 0.099 0.208 0.094 0.078 0 0.151-0.047 0.198-0.109l0.411-0.641c0.135-0.203 0.109-0.474-0.068-0.646-0.568-0.573-1.979-1.74-3.932-1.74zM20.49 12.24c-0.688 0.083-1.484 0.453-2.354 1.354 0 0 2.036-0.677 2.766 1.016 0.734 1.698-0.016 3.583-3.24 6.417 0 0 1.979-0.922 3.635-2.328 0.505-0.406 1.151-0.37 1.797-0.286s1.12 0.573 1.12 0.573c-0.458-0.938-1.255-1.219-1.896-1.271 1.021-1.151 1.62-2.505 0.958-3.906-0.234-0.516-0.63-0.943-1.12-1.224-0.406-0.229-0.979-0.427-1.667-0.344zM11.505 12.245c-0.688-0.083-1.26 0.115-1.667 0.344-0.49 0.281-0.88 0.708-1.12 1.224-0.661 1.401-0.063 2.755 0.958 3.906-0.641 0.052-1.438 0.328-1.896 1.266 0 0 0.474-0.484 1.12-0.568 0.646-0.089 1.292-0.12 1.797 0.286 1.661 1.401 3.641 2.323 3.641 2.323-3.224-2.833-3.974-4.719-3.24-6.417 0.729-1.693 2.76-1.010 2.76-1.010-0.87-0.901-1.667-1.271-2.354-1.354z"></path>
</svg>
