<!-- Generated by IcoMoon.io -->
<svg version="1.1" xmlns="http://www.w3.org/2000/svg" width="32" height="32" viewBox="0 0 32 32">
<path d="M10.354 30.896c2.354 0.167 4.719-0.203 6.917-1.068-0.542-0.167-1.052-0.307-1.547-0.484-0.495-0.167-0.984-0.359-1.469-0.573-2.354-0.906-4.214-2.771-5.12-5.125-0.469-1.333-0.568-2.771-0.292-4.161 0.271 0.318 0.51 0.635 0.781 0.917 0.578 0.646 1.464 0.922 2.307 0.729 1.547-0.281 2.729-1.536 2.922-3.094 0.25-1.484-0.12-3.005-1.021-4.214-0.896-1.208-2.245-2-3.74-2.188-3.323-0.38-6.432 1.703-7.354 4.917-0.505 1.62-0.76 3.302-0.745 5-0.010 0.703 0 1.411 0 2.057-1.427-2.615-2.109-5.568-1.974-8.542 0.271-4.573 2.505-8.807 6.125-11.609-0.594 1.078-1.188 2.094-1.719 3.141-0.563 1.073-0.885 2.26-0.943 3.474 0.474-0.443 0.88-0.823 1.297-1.198 1.375-1.307 3.073-2.224 4.922-2.651 2.5-0.531 5.099 0.135 7.031 1.802l-1.010 0.208c-0.839 0.156-1.557 0.688-1.948 1.443-0.396 0.755-0.417 1.651-0.068 2.427 0.594 1.703 2.13 2.901 3.932 3.063 1.667 0.193 3.339-0.333 4.594-1.453s1.974-2.719 1.969-4.401c0.026-2.182-0.891-4.271-2.51-5.729-1.474-1.396-3.177-2.531-5.036-3.349-0.12-0.057-0.24-0.12-0.411-0.208 7.854 0.026 14.531 5.755 15.75 13.521-0.646-1.026-1.245-2.057-1.911-3.036-0.661-0.995-1.526-1.844-2.536-2.484 0.182 0.849 0.396 1.646 0.521 2.464 0.563 2.703-0.099 5.521-1.813 7.688-0.927 1.063-2.12 1.865-3.453 2.328-0.031 0.005-0.073 0.005-0.109 0 0.146-0.458 0.307-0.896 0.422-1.344 0.297-1.104-0.198-2.271-1.198-2.823-1.219-0.797-2.781-0.839-4.036-0.109-2.505 1.224-3.667 4.156-2.667 6.766 0.781 2.391 2.922 4.083 5.432 4.297 1.948 0.177 3.901-0.224 5.625-1.146 1.063-0.49 2.057-1.141 3.073-1.734 0.13-0.073 0.245-0.161 0.411-0.271-3.927 6.714-12.151 9.578-19.401 6.755z"></path>
</svg>
