<!-- Generated by IcoMoon.io -->
<svg version="1.1" xmlns="http://www.w3.org/2000/svg" width="32" height="32" viewBox="0 0 32 32">
<path d="M18.458 18.635l-0.036-0.115c-0.401-1.089-0.99-2.099-1.734-2.99-0.234-0.276-0.484-0.536-0.745-0.786 2.667 0.016 4.844-2.135 4.859-4.802 0.016-2.672-2.135-4.844-4.802-4.859-1.719 0.031-3.292 0.958-4.156 2.443-0.859 1.49-0.875 3.318-0.047 4.823-0.891-0.255-1.813-0.385-2.74-0.385-0.578 0.005-1.156 0.052-1.729 0.151l-0.083 0.016c-3.047-12.677 17.214-15.953 17.813-2.203-0.021 4.042-2.708 7.589-6.599 8.708zM26.828 13.75c-0.458-0.219-0.938-0.401-1.427-0.536-0.536 1.469-1.401 2.797-2.526 3.885h0.068c2.667 0 4.833 2.161 4.833 4.828s-2.167 4.828-4.833 4.828c-2.667 0-4.828-2.161-4.828-4.828 0-0.339-0.021-0.677-0.057-1.016-0.313-2.771-1.885-5.24-4.26-6.703l-0.432-0.25c-4.010-2.167-9.005-1.021-11.667 2.677-2.661 3.703-2.156 8.802 1.177 11.911s8.458 3.26 11.964 0.349c0.188-0.156 0.365-0.318 0.542-0.49l-0.068-0.089c-0.979-1.167-1.672-2.547-2.036-4.031-1.292 2.302-4.193 3.141-6.516 1.88-2.318-1.26-3.198-4.151-1.964-6.49 1.229-2.339 4.109-3.25 6.464-2.052 0.151 0.078 0.297 0.161 0.432 0.25 1.177 0.771 1.964 2.010 2.151 3.406 0.026 0.214 0.042 0.427 0.042 0.641-0.005 4.49 3.281 8.302 7.719 8.964 4.443 0.667 8.698-2.021 10.005-6.318 1.307-4.292-0.724-8.896-4.781-10.823z"></path>
</svg>
