<!-- Generated by IcoMoon.io -->
<svg version="1.1" xmlns="http://www.w3.org/2000/svg" width="32" height="32" viewBox="0 0 32 32">
<path d="M28.209 0.008c-0.776 0.057-1.541 0.198-2.286 0.427-1.198 0.25-2.343 0.713-3.379 1.369-0.536 0.318-0.547 0.739-0.713 0.625-0.333-0.141-0.713-0.172-1.067-0.073-7.847 6.191-8.019 6.545-12.033 12.491-0.26 0.104-0.651-0.25-0.651-0.25-0.135 1.244-0.489 1.244-1.198 2.666-0.88 1.38-1.187 3.051-0.859 4.655-0.573-0.104-1.13-0.292-1.651-0.562l1.067 0.89c-0.698 0.187-1.416 0.245-2.135 0.182l1.427 1.067c0 0-0.896 0.885-1.25 0.885l1.187 0.172c-1.385 2.322-2.541 4.775-3.442 7.326-0.010 0.031-0.005 0.068 0.016 0.088 0.021 0.026 0.052 0.036 0.089 0.031l1.354-0.687c0.021-0.010 0.036-0.031 0.047-0.057 0.62-2.421 1.999-4.582 3.931-6.17l1.093 1.255c-0.24-0.557-0.359-1.166-0.354-1.776l1.958 0.354c-0.89-0.89-0.797-1.281-0.797-1.281 1.208 0.219 2.452 0.193 3.655-0.078 1.369-0.505 2.676-1.166 3.895-1.973 0.193-0.094-0.333-0.187-0.151-0.286 0.182-0.094 0.75-0.213 0.942-0.328 2.067-1.385 4.020-2.937 5.837-4.629 2.104-1.77 3.931-3.853 5.405-6.17 0.099-0.172-0.823-0.458-1.198-0.531 0.401 0.047 1.406 0.276 1.494 0.109 1.005-1.63 1.671-3.447 1.963-5.347 0.13-1.552 1.552-4.577-2.197-4.395zM7.049 21.892c4.462-9.607 17.255-17.438 17.255-17.438 4.046-3.166-9.050 5.571-17.255 17.615z"></path>
</svg>
