<!-- Generated by IcoMoon.io -->
<svg version="1.1" xmlns="http://www.w3.org/2000/svg" width="32" height="32" viewBox="0 0 32 32">
<path d="M25.781 11.532c-1.432 0.208-2.734 0.938-3.656 2.057 3.51-4.005 6.922-11.776 0.073-12.13-0.036-0.26-0.458-0.88-0.917-0.63-3.167 2.672-4.943 6.641-4.823 10.781-1.13-5.854-7.135-9.786-9.562-9.078-0.474 0.74-0.13 1.391-0.599 1.813-0.411 0.375-1.323-0.036-1.417 0.573-0.74 3.948 2.161 8.297 6.307 10.354-4.073-0.651-10.812 0.016-11.187 4.911 0 2.146 2.901 3.146 7.292 3.146 2.807 0.203 5.51-1.068 7.151-3.354-5.807 6.234-1.245 7.495 5.010 4.068 2.453-1.417 1.828-3.198 0.063-5.245 3.188 1.953 8.583-0.396 8.859-3.932 0-1.443-0.62-3.307-2.594-3.333zM17.193 14.974c0 0.583-0.432 1.078-1.010 1.146l-0.229 1.453-0.182-1.5c-0.599-0.151-0.964-0.755-0.828-1.354l-1.068-1.297 1.276 0.859c0.188-0.24 0.464-0.396 0.766-0.432s0.609 0.047 0.849 0.24l1.047-0.875-0.813 1.125c0.125 0.193 0.193 0.411 0.193 0.635zM32 19.266c-1.188 0.568-1.76 3.885-3.625 5.339-1.844 1.094-4.010 1.5-6.12 1.146-0.516 2.385-2.099 4.406-4.302 5.469-0.042 0.021-0.089 0.010-0.12-0.026-0.026-0.036-0.026-0.089 0.005-0.12 1.708-2.016 2.531-4.63 2.286-7.255 0.677-0.432 1.109-1.151 1.177-1.953 0.068-0.797-0.24-1.578-0.833-2.12 0.786 0.151 1.896 3.083 2.005 4.859 0 0 4.245-2.693 5.38-3.13-1.927 0.589-3.724 1.557-5.276 2.844 0.766-1.297 1.75-2.453 2.901-3.427 1.396-1.214 5.49-1.255 6.521-1.625z"></path>
</svg>
