<!-- Generated by IcoMoon.io -->
<svg version="1.1" xmlns="http://www.w3.org/2000/svg" width="32" height="32" viewBox="0 0 32 32">
<path d="M16.271 13.734c-1.141 1.229-2.177 2.38-3.245 3.516-0.198 0.156-0.255 0.427-0.141 0.651 0.693 1.547 1.76 2.896 3.099 3.932 0.12 0.052 0.26 0.042 0.375-0.021 0.885-0.589 1.792-1.146 2.63-1.802 1.766-1.37 3.406-2.891 4.896-4.557 0.411 0.839 0.87 1.599 1.182 2.432 0.458 1.219 0.813 2.484 1.224 3.729 0.073 0.224 0.021 0.474-0.141 0.651-1.177 1.656-2.536 3.177-4.042 4.536-1.922 1.729-3.917 3.365-5.885 5.031-0.078 0.063-0.161 0.115-0.245 0.167-1.146-0.938-2.333-1.87-3.474-2.839-2.313-1.964-4.484-4.083-6.51-6.344-1.818-1.995-3.422-4.172-4.786-6.505-0.13-0.193-0.13-0.443 0-0.635 0.875-1.448 1.906-2.797 3.078-4.021 2.672 6.984 6.677 13.38 11.786 18.839 3.036-2.964 5.365-6.568 6.813-10.552l-0.083-0.073-6.703 5.63c-0.089-0.073-0.182-0.135-0.266-0.229-2.344-2.24-4.318-4.833-5.854-7.688-0.099-0.12-0.141-0.276-0.12-0.432 0.021-0.151 0.104-0.292 0.234-0.38 1.141-1.010 2.281-2.036 3.427-3.031 0.516-0.443 1.083-0.833 1.682-1.292zM16.792 19.552c0.604-0.458 1.167-0.849 1.682-1.292 1.156-0.995 2.286-2.021 3.432-3.031 0.125-0.089 0.203-0.229 0.224-0.38 0.026-0.156-0.016-0.313-0.109-0.432-1.536-2.859-3.51-5.458-5.854-7.703-0.078-0.078-0.172-0.141-0.26-0.229l-6.708 5.646-0.089-0.073c1.453-3.984 3.781-7.589 6.823-10.552 5.109 5.458 9.115 11.854 11.786 18.839 1.167-1.224 2.198-2.573 3.073-4.021 0.13-0.188 0.13-0.443 0-0.635-1.365-2.333-2.974-4.516-4.802-6.505-2.016-2.26-4.188-4.38-6.495-6.344-1.141-0.969-2.318-1.901-3.474-2.839-0.115 0.073-0.188 0.115-0.245 0.161-1.964 1.672-3.964 3.307-5.88 5.031-1.51 1.359-2.865 2.885-4.047 4.542-0.156 0.177-0.214 0.422-0.141 0.651 0.411 1.245 0.766 2.516 1.224 3.729 0.313 0.828 0.771 1.604 1.182 2.432 1.49-1.661 3.13-3.188 4.896-4.557 0.839-0.651 1.745-1.214 2.63-1.802 0.115-0.063 0.255-0.073 0.375-0.021 1.339 1.036 2.406 2.385 3.099 3.932 0.115 0.224 0.057 0.495-0.141 0.651-1.068 1.146-2.115 2.286-3.245 3.516z"></path>
</svg>
