<!-- Generated by IcoMoon.io -->
<svg version="1.1" xmlns="http://www.w3.org/2000/svg" width="32" height="32" viewBox="0 0 32 32">
<path d="M21.818 19.896c9.422-5.255 9.422-8.125 9.417-15.755h-30.255c0 7.63 0 10.49 9.417 15.755 0 4 3.974 2.927 3.974 5 0.172 1.75-0.438 2.76-1.297 2.917-2.766 0.38-7.698 2.146-7.729 4.031h21.531c-0.036-1.885-4.969-3.656-7.734-4.031-0.854-0.156-1.474-1.167-1.297-2.917 0-2.073 3.974-1 3.974-5zM17.052 13.234l-0.792 3.188c-0.016 0.068-0.078 0.12-0.151 0.12s-0.135-0.052-0.151-0.12l-0.797-3.188c-0.208-0.828-0.885-1.458-1.729-1.599l-2.849-0.469c-0.078-0.010-0.135-0.078-0.135-0.156s0.057-0.146 0.135-0.151l2.849-0.474c0.844-0.141 1.521-0.771 1.729-1.599l0.797-3.188c0.016-0.068 0.078-0.12 0.151-0.115 0.068 0 0.13 0.047 0.151 0.115l0.792 3.188c0.208 0.828 0.885 1.458 1.734 1.599l2.844 0.474c0.078 0.005 0.135 0.073 0.135 0.151s-0.057 0.146-0.135 0.156l-2.844 0.474c-0.844 0.141-1.526 0.766-1.734 1.594zM30.495 3.161h-28.99c-0.401 0-0.781-0.156-1.063-0.438-0.286-0.281-0.443-0.667-0.443-1.063 0-0.401 0.156-0.786 0.438-1.068 0.286-0.281 0.667-0.438 1.068-0.438h28.99c0.401 0 0.781 0.156 1.068 0.438 0.281 0.281 0.438 0.667 0.438 1.068 0 0.396-0.156 0.781-0.443 1.063-0.281 0.281-0.661 0.438-1.063 0.438z"></path>
</svg>
