<!-- Generated by IcoMoon.io -->
<svg version="1.1" xmlns="http://www.w3.org/2000/svg" width="32" height="32" viewBox="0 0 32 32">
<path d="M32 10.891v10.219c0 0.74-0.599 1.344-1.344 1.344h-8.203v8.203c0 0.745-0.604 1.344-1.344 1.344h-10.219c-0.74 0-1.344-0.599-1.344-1.344v-8.203h-8.203c-0.745 0-1.344-0.604-1.344-1.344v-10.219c0-0.74 0.599-1.344 1.344-1.344h8.203v-8.203c0-0.745 0.604-1.344 1.344-1.344h10.219c0.74 0 1.344 0.599 1.344 1.344v8.203h8.203c0.745 0 1.344 0.604 1.344 1.344z"></path>
</svg>
