<!-- Generated by IcoMoon.io -->
<svg version="1.1" xmlns="http://www.w3.org/2000/svg" width="32" height="32" viewBox="0 0 32 32">
<path d="M8 17.495c0.161-0.552 0.531-1.016 1.026-1.307 3.453-1.943 8.198 4.839 14.958 1.255 4.406 13.901-20.328 14.276-15.984 0.052zM16 32c-7.708 0-15.427-5.531-11.734-16.594 2.448-5.698 6.12-10.792 10.75-14.922 0.266-0.266 0.615-0.432 0.984-0.484 0.375 0.047 0.719 0.219 0.99 0.484 4.63 4.125 8.302 9.219 10.75 14.922 3.688 11.063-4.021 16.594-11.74 16.594zM16.505 4.135c-0.156-0.083-0.328-0.146-0.505-0.172-0.177 0.026-0.349 0.089-0.505 0.172-3.906 3.026-9.323 12.073-9.005 16.917 0.563 4.771 4.708 8.302 9.51 8.099 4.797 0.203 8.943-3.323 9.516-8.089 0.318-4.854-5.104-13.901-9.010-16.927z"></path>
</svg>
