<!-- Generated by IcoMoon.io -->
<svg version="1.1" xmlns="http://www.w3.org/2000/svg" width="32" height="32" viewBox="0 0 32 32">
<path d="M6.682 27.99l0.578 0.297c2.724 1.479 5.786 2.24 8.891 2.198 4.458-0.078 8.115-3.563 8.401-8.016 0.292-4.453-2.875-8.38-7.286-9.042-1.297-0.208-2.62-0.104-3.865 0.302-1.078 0.391-2.276-0.135-2.714-1.198s0.036-2.276 1.073-2.76c1.073-0.479 2.219-0.766 3.385-0.839 5.208-0.38 9.995 2.885 11.542 7.875 1.49 5.203-0.922 10.734-5.755 13.177 9.641-3.526 10.797-17.849 1.854-22.896-2.328-1.505-5.094-2.172-7.854-1.896-3.198 0.24-6.182 1.693-8.344 4.057-0.333 0.385-0.651 0.781-0.948 1.198-0.479 0.672-1.323 0.974-2.12 0.771-0.833-0.094-1.531-0.661-1.786-1.458-0.141-0.531-0.057-1.094 0.229-1.563 0.797-1.49 1.849-2.823 3.115-3.938 2.49-2.25 5.615-3.677 8.948-4.073 6.281-0.802 12.438 2.219 15.651 7.677 6.135 9.37-0.599 22.828-11.641 23.932-2.5 0.344-5.042 0.073-7.411-0.781-1.568-0.625-2.932-1.672-3.943-3.026zM19.292 27.719c-1.583 1.172-3.729 1.234-5.375 0.146-1.078-0.604-1.75-1.745-1.75-2.984-0.005-1.234 0.661-2.38 1.734-2.99 0.568-0.38 1.281-0.469 1.927-0.245 0.646 0.229 1.146 0.745 1.349 1.401 1.76 4.708 6.026 0.333 3.255-2.849-1.151-1.552-3.036-2.38-4.958-2.172-2.146 0.156-4.016 1.505-4.839 3.49-0.823 1.979-0.458 4.26 0.943 5.885 1.401 1.63 3.604 2.323 5.688 1.802 1.469-0.354 2.729-1.307 3.474-2.63-0.479 0.38-0.938 0.802-1.448 1.146zM5.052 21.76c-0.839 0-1.516 0.682-1.516 1.516 0 0.839 0.677 1.516 1.516 1.516s1.516-0.677 1.516-1.516c0-0.833-0.677-1.516-1.516-1.516zM2.193 14.021c-1.208-0.005-2.193 0.974-2.193 2.187 0 1.208 0.979 2.188 2.193 2.188 1.208 0 2.188-0.979 2.188-2.193 0-1.203-0.979-2.182-2.188-2.182z"></path>
</svg>
