<!-- Generated by IcoMoon.io -->
<svg version="1.1" xmlns="http://www.w3.org/2000/svg" width="32" height="32" viewBox="0 0 32 32">
<path d="M26.266 18.099l-5.688 3.797v4.047l5.688-3.797 5.688 3.797v-4.047zM26.266 23.661l-5.688 3.797v4.047l5.688-3.792 5.688 3.792v-4.047zM16.984 3.792l-1.672 1.667c-0.203 0.203-0.203 0.536 0 0.74l1.911 1.911-16.328 16.328c-0.193 0.193-0.302 0.453-0.302 0.724-0.339 2.234-0.521 4.49-0.547 6.75 2.26-0.026 4.51-0.208 6.745-0.547 0.276-0.005 0.536-0.109 0.729-0.302l16.328-16.333c2.547 2.318 1.656 3.005 4.318 0.245 0.203-0.203 0.203-0.531 0-0.734l-3.755-3.755 4.401-4.401c4.323 0.141 2.776 0.604 3.052-5.474 0-0.286-0.229-0.521-0.521-0.521h-5.005c-0.281 0-0.51 0.224-0.526 0.5l0.057 2.552-4.401 4.401-3.75-3.75c-0.203-0.203-0.531-0.203-0.734 0z"></path>
</svg>
