<!-- Generated by IcoMoon.io -->
<svg version="1.1" xmlns="http://www.w3.org/2000/svg" width="32" height="32" viewBox="0 0 32 32">
<path d="M16.26 32c-3.526-3.359-7.953-5.141-11.797-7.948-3.365-2.516-0.615-6.964 1.339-9.516 1.495-1.802 2.839-3.729 4.005-5.766-0.016 3.661 3.568 4.922 6.359 6.193-5.266-0.307-9.75 5.839-5.552 9.995-4.276-1.766-6.167-5.609-2.969-9.531-1.646 0.62-2.828 2.083-3.083 3.823-0.255 1.745 0.458 3.484 1.859 4.547 3.047 2.057 6.552 3.391 9.495 5.625 0.125 0.089 0.286 0.104 0.427 0.047 2.833-2.042 5.964-3.604 8.964-5.37 3.776-2.026 3.359-6.339-0.354-8.193 3.328 6.448-2.771 11.297-8.917 10.849-6.682-0.49-7.036-7.255-1.427-6.182-1.214 0.677-1.849 2.068-1.563 3.427 1.203 3.417 6.755 2.224 8.708 0.073 2.505-2.349 0.75-6.932-2.234-8.229-3.411-1.599-10.156-3.49-7.542-8.542 1.589-2.479 3.448-4.135 3.74-7.302 0.99 1.328 3.297 3.927 2.833 5.604-0.547 1.646-2.479 2.245-3.078 3.911-0.391 0.724-0.469 1.578-0.224 2.359 0.25 0.786 0.807 1.438 1.542 1.807-2.323-2.49 0.208-5.505 2.63-6.813-1.474 3.313-0.385 7.203 2.599 9.271-1.661-3.656-3.083-3.75-0.297-7.792 0.542 2.547 2.016 4.802 4.13 6.323 4.703 4.13 4.344 8.526-1.188 11.583-3.047 1.531-5.875 3.464-8.411 5.745zM17.495 24c8.667-3.255-2.182-11.807-5.401-4.589 3.234-1.849 7.672 0.979 5.401 4.589z"></path>
</svg>
