<!-- Generated by IcoMoon.io -->
<svg version="1.1" xmlns="http://www.w3.org/2000/svg" width="32" height="32" viewBox="0 0 32 32">
<path d="M26.729 29.047h-1.87v-2.156c0-8.083-7.479-8.479-7.479-11.234v-0.161c-0.005-0.667 0.333-1.286 0.896-1.646 1.984-1.281 6.339-3 6.573-8.906 0.005-0.13-0.042-0.266-0.135-0.359-0.094-0.099-0.219-0.151-0.354-0.151h-16.719c-0.135 0-0.26 0.052-0.354 0.151-0.094 0.094-0.146 0.224-0.141 0.359 0.229 5.906 4.594 7.625 6.578 8.917 0.557 0.359 0.896 0.979 0.896 1.646v0.161c0 2.755-7.479 3.151-7.479 11.234v2.156h-1.875c-0.266 0-0.484 0.214-0.49 0.479v1.974c0 0.271 0.219 0.49 0.49 0.49h21.464c0.276 0 0.495-0.219 0.495-0.49v-1.974c0-0.271-0.219-0.49-0.495-0.49zM16 29.047h-7.083c0-6.302 6.297-4.922 6.297-7.484v-7.875c0 0-3.745-2.167-3.745-3.745h9.057c0 1.578-3.74 3.745-3.74 3.745v7.875c0 2.563 6.302 1.182 6.302 7.484zM27.224 0.49v1.974c0 0.271-0.219 0.49-0.495 0.49h-21.464c-0.271 0-0.49-0.219-0.49-0.49v-1.974c0-0.271 0.219-0.49 0.49-0.49h21.464c0.276 0 0.495 0.219 0.495 0.49z"></path>
</svg>
