<!-- Generated by IcoMoon.io -->
<svg version="1.1" xmlns="http://www.w3.org/2000/svg" width="32" height="32" viewBox="0 0 32 32">
<path d="M11.006 12.195h4.008v4.008h-4.008zM17.018 12.195h4.008v4.008h-4.008zM23.029 12.195h4.008v4.008h-4.008zM4.994 24.219h4.008v4.008h-4.008zM11.006 24.219h4.008v4.008h-4.008zM17.018 24.219h4.008v4.008h-4.008zM11.006 18.207h4.008v4.008h-4.008zM17.018 18.207h4.008v4.008h-4.008zM23.029 18.207h4.008v4.008h-4.008zM4.994 18.207h4.008v4.008h-4.008zM27.037 0.172v2.004h-4.008v-2.004h-14.027v2.004h-4.008v-2.004h-4.008v32.063h30.059v-32.063h-4.008zM29.041 30.231h-26.051v-22.043h26.051v22.043z"></path>
</svg>
