<!-- Generated by IcoMoon.io -->
<svg version="1.1" xmlns="http://www.w3.org/2000/svg" width="32" height="32" viewBox="0 0 32 32">
<path d="M20.958 16.203l7.413-7.413c0.91-0.91 0.91-2.385 0-3.295l-1.647-1.647c-0.91-0.91-2.385-0.91-3.295 0l-7.413 7.413-7.413-7.413c-0.91-0.91-2.385-0.91-3.295 0l-1.647 1.647c-0.91 0.91-0.91 2.385 0 3.295l7.413 7.413-7.413 7.413c-0.91 0.91-0.91 2.385 0 3.295l1.647 1.647c0.91 0.91 2.385 0.91 3.295 0l7.413-7.413 7.413 7.413c0.91 0.91 2.385 0.91 3.295 0l1.647-1.647c0.91-0.91 0.91-2.385 0-3.295l-7.413-7.413z"></path>
</svg>
