<!-- Generated by IcoMoon.io -->
<svg version="1.1" xmlns="http://www.w3.org/2000/svg" width="32" height="32" viewBox="0 0 32 32">
<path d="M4.994 10.192v20.039c0 1.102 0.902 2.004 2.004 2.004h18.035c1.102 0 2.004-0.902 2.004-2.004v-20.039h-22.043zM11.006 28.227h-2.004v-14.027h2.004v14.027zM15.014 28.227h-2.004v-14.027h2.004v14.027zM19.021 28.227h-2.004v-14.027h2.004v14.027zM23.029 28.227h-2.004v-14.027h2.004v14.027zM27.538 4.18h-6.513v-2.505c0-0.827-0.676-1.503-1.503-1.503h-7.014c-0.827 0-1.503 0.676-1.503 1.503v2.505h-6.513c-0.827 0-1.503 0.676-1.503 1.503v2.505h26.051v-2.505c0-0.827-0.676-1.503-1.503-1.503zM19.021 4.18h-6.012v-1.979h6.012v1.979z"></path>
</svg>
