<!-- Generated by IcoMoon.io -->
<svg version="1.1" xmlns="http://www.w3.org/2000/svg" width="40" height="32" viewBox="0 0 40 32">
<path d="M20.051 25.23c-4.755 0-8.603-3.68-8.957-8.344l-6.575-5.082c-0.864 1.084-1.66 2.231-2.302 3.485-0.137 0.266-0.218 0.581-0.218 0.915s0.081 0.649 0.223 0.926l-0.005-0.011c3.399 6.633 10.129 11.12 17.835 11.12 1.687 0 3.314-0.251 4.882-0.656l-3.253-2.517c-0.487 0.099-1.050 0.158-1.625 0.164l-0.004 0zM39.722 28.872l-6.93-5.356c2.079-1.76 3.786-3.884 5.038-6.283l0.055-0.115c0.137-0.266 0.218-0.581 0.218-0.915s-0.081-0.649-0.223-0.926l0.005 0.011c-3.399-6.633-10.129-11.12-17.835-11.12-3.387 0.004-6.568 0.879-9.333 2.413l0.099-0.050-7.975-6.164c-0.168-0.132-0.383-0.211-0.616-0.211-0.321 0-0.607 0.151-0.79 0.385l-0.002 0.002-1.23 1.584c-0.132 0.168-0.211 0.383-0.211 0.615 0 0.321 0.151 0.606 0.385 0.79l0.002 0.002 36.88 28.504c0.168 0.132 0.383 0.211 0.616 0.211 0.321 0 0.607-0.151 0.79-0.385l0.002-0.002 1.231-1.584c0.132-0.168 0.211-0.382 0.211-0.615 0-0.321-0.151-0.607-0.385-0.79l-0.002-0.002zM28.206 19.971l-2.463-1.904c0.198-0.554 0.317-1.193 0.326-1.859l0-0.004c0-0.023 0-0.051 0-0.078 0-3.28-2.659-5.94-5.94-5.94-0.593 0-1.166 0.087-1.707 0.249l0.042-0.011c0.363 0.488 0.582 1.102 0.584 1.768v0c-0.010 0.227-0.045 0.442-0.101 0.647l0.005-0.021-4.614-3.566c1.535-1.29 3.533-2.074 5.713-2.075h0c0.001 0 0.003 0 0.005 0 4.982 0 9.021 4.039 9.021 9.021 0 0.002 0 0.003 0 0.005v-0c0 1.356-0.332 2.62-0.871 3.768z"></path>
</svg>
