<!-- Generated by IcoMoon.io -->
<svg version="1.1" xmlns="http://www.w3.org/2000/svg" width="36" height="32" viewBox="0 0 36 32">
<path d="M35.884 15.288c-3.399-6.633-10.129-11.12-17.835-11.12s-14.437 4.491-17.835 11.121c-0.137 0.266-0.218 0.581-0.218 0.915s0.081 0.649 0.223 0.926l-0.005-0.011c3.399 6.633 10.129 11.12 17.835 11.12s14.437-4.491 17.835-11.121c0.137-0.266 0.218-0.581 0.218-0.915s-0.081-0.649-0.223-0.926l0.005 0.011zM18.049 25.23c-4.985 0-9.026-4.041-9.026-9.026s4.041-9.026 9.026-9.026c4.985 0 9.026 4.041 9.026 9.026v0c0 0.001 0 0.003 0 0.004 0 4.983-4.039 9.022-9.022 9.022-0.002 0-0.003 0-0.005 0h0zM18.049 10.186c-0.568 0.008-1.113 0.094-1.629 0.248l0.042-0.011c0.364 0.491 0.584 1.109 0.584 1.778 0 1.657-1.343 2.999-2.999 2.999-0.669 0-1.287-0.219-1.786-0.589l0.008 0.006c-0.133 0.472-0.21 1.013-0.21 1.573 0 3.316 2.688 6.004 6.004 6.004s6.004-2.688 6.004-6.004c0-3.316-2.688-6.004-6.004-6.004-0.005 0-0.010 0-0.015 0h0.001z"></path>
</svg>
