<!-- Generated by IcoMoon.io -->
<svg version="1.1" xmlns="http://www.w3.org/2000/svg" width="32" height="32" viewBox="0 0 32 32">
<path d="M14.012 9.691c0-0.827 0.676-1.503 1.503-1.503h1.002c0.827 0 1.503 0.676 1.503 1.503v1.002c0 0.827-0.676 1.503-1.503 1.503h-1.002c-0.827 0-1.503-0.676-1.503-1.503v-1.002zM20.023 24.219h-8.016v-2.004h2.004v-6.012h-2.004v-2.004h6.012v8.016h2.004zM16.016 0.172c-8.854 0-16.031 7.177-16.031 16.031s7.177 16.031 16.031 16.031 16.031-7.177 16.031-16.031-7.177-16.031-16.031-16.031zM16.016 29.229c-7.194 0-13.025-5.832-13.025-13.025s5.832-13.025 13.025-13.025 13.025 5.832 13.025 13.025-5.832 13.025-13.025 13.025z"></path>
</svg>
