<!-- Generated by IcoMoon.io -->
<svg version="1.1" xmlns="http://www.w3.org/2000/svg" width="32" height="32" viewBox="0 0 32 32">
<path d="M13.998 9.494c0-0.826 0.676-1.501 1.501-1.501h1.001c0.826 0 1.501 0.676 1.501 1.501v1.001c0 0.826-0.676 1.501-1.501 1.501h-1.001c-0.826 0-1.501-0.676-1.501-1.501v-1.001zM20.004 24.008h-8.008v-2.002h2.002v-6.006h-2.002v-2.002h6.006v8.008h2.002zM16-0.016c-8.845 0-16.016 7.17-16.016 16.016s7.17 16.016 16.016 16.016 16.016-7.17 16.016-16.016-7.17-16.016-16.016-16.016zM16 29.013c-7.187 0-13.013-5.826-13.013-13.013s5.826-13.013 13.013-13.013 13.013 5.826 13.013 13.013-5.826 13.013-13.013 13.013z"></path>
</svg>
