<!-- Generated by IcoMoon.io -->
<svg version="1.1" xmlns="http://www.w3.org/2000/svg" width="32" height="32" viewBox="0 0 32 32">
<path d="M31.517 16.5c-0.040-2.091-0.494-4.176-1.332-6.083-0.835-1.908-2.048-3.637-3.536-5.065-1.487-1.429-3.251-2.559-5.161-3.305-1.908-0.748-3.96-1.106-5.987-1.062-2.027 0.040-4.046 0.481-5.891 1.294-1.847 0.81-3.52 1.985-4.903 3.428s-2.476 3.15-3.196 4.999c-0.723 1.848-1.068 3.832-1.024 5.795 0.040 1.963 0.468 3.915 1.255 5.7 0.785 1.786 1.923 3.404 3.319 4.741 1.395 1.337 3.049 2.393 4.836 3.088 1.787 0.698 3.705 1.029 5.604 0.986 1.899-0.040 3.784-0.455 5.508-1.217 1.725-0.76 3.288-1.861 4.578-3.211 1.291-1.349 2.31-2.948 2.98-4.674 0.408-1.047 0.684-2.14 0.83-3.247 0.039 0.002 0.078 0.004 0.118 0.004 1.106 0 2.002-0.896 2.002-2.002 0-0.056-0.003-0.112-0.007-0.167h0.007zM28.336 21.816c-0.734 1.664-1.798 3.172-3.102 4.416s-2.847 2.227-4.512 2.871c-1.665 0.647-3.45 0.953-5.22 0.91-1.771-0.041-3.522-0.43-5.124-1.141-1.603-0.709-3.056-1.736-4.254-2.994s-2.144-2.745-2.763-4.35c-0.622-1.604-0.914-3.322-0.872-5.029 0.041-1.706 0.417-3.391 1.103-4.933 0.684-1.542 1.673-2.939 2.885-4.092s2.644-2.060 4.188-2.654c1.543-0.596 3.195-0.876 4.837-0.833 1.642 0.041 3.26 0.404 4.741 1.065 1.481 0.658 2.823 1.611 3.93 2.777s1.977 2.543 2.546 4.025c0.571 1.482 0.838 3.067 0.795 4.645h0.007c-0.005 0.055-0.007 0.111-0.007 0.167 0 1.033 0.782 1.882 1.786 1.99-0.195 1.089-0.517 2.153-0.963 3.159z"></path>
</svg>
