<!-- Generated by IcoMoon.io -->
<svg version="1.1" xmlns="http://www.w3.org/2000/svg" width="32" height="32" viewBox="0 0 32 32">
<path d="M31.548 16.704c-0.040-2.094-0.494-4.181-1.333-6.089-0.836-1.91-2.050-3.64-3.54-5.070-1.489-1.431-3.255-2.562-5.166-3.308-1.91-0.749-3.964-1.107-5.993-1.063-2.029 0.040-4.050 0.481-5.897 1.295-1.849 0.811-3.524 1.987-4.907 3.431-1.385 1.443-2.479 3.153-3.2 5.003-0.724 1.849-1.069 3.836-1.025 5.801 0.040 1.965 0.469 3.919 1.257 5.705 0.786 1.788 1.925 3.407 3.322 4.745 1.397 1.339 3.052 2.395 4.841 3.091 1.788 0.698 3.709 1.030 5.609 0.987 1.901-0.040 3.787-0.456 5.513-1.218 1.727-0.76 3.291-1.862 4.583-3.214s2.312-2.951 2.983-4.679c0.408-1.048 0.685-2.142 0.831-3.25 0.039 0.002 0.078 0.004 0.118 0.004 1.107 0 2.004-0.897 2.004-2.004 0-0.056-0.003-0.112-0.007-0.167h0.007zM28.364 22.025c-0.735 1.666-1.8 3.175-3.105 4.421s-2.849 2.229-4.516 2.874c-1.667 0.647-3.453 0.953-5.225 0.911-1.772-0.041-3.526-0.43-5.129-1.142-1.605-0.71-3.059-1.737-4.258-2.997s-2.146-2.748-2.765-4.354c-0.622-1.606-0.915-3.326-0.872-5.033 0.041-1.708 0.417-3.395 1.104-4.937 0.684-1.544 1.675-2.942 2.888-4.096s2.647-2.062 4.192-2.657c1.545-0.597 3.198-0.877 4.841-0.834 1.644 0.041 3.264 0.404 4.746 1.066 1.483 0.659 2.826 1.613 3.933 2.78s1.979 2.545 2.548 4.029c0.571 1.484 0.839 3.070 0.796 4.65h0.007c-0.005 0.055-0.007 0.111-0.007 0.167 0 1.034 0.782 1.884 1.787 1.992-0.195 1.090-0.518 2.155-0.964 3.162z"></path>
</svg>
