<!-- Generated by IcoMoon.io -->
<svg version="1.1" xmlns="http://www.w3.org/2000/svg" width="32" height="32" viewBox="0 0 32 32">
<path d="M23.431 8.27c-2.021-1.892-4.643-2.929-7.426-2.927-5.007 0.004-9.33 3.438-10.523 8.2-0.087 0.347-0.396 0.591-0.753 0.591h-3.704c-0.485 0-0.853-0.44-0.763-0.916 1.399-7.427 7.92-13.046 15.754-13.046 4.295 0 8.196 1.69 11.074 4.44l2.309-2.309c0.977-0.977 2.648-0.285 2.648 1.097v8.666c0 0.857-0.695 1.551-1.551 1.551h-8.666c-1.382 0-2.074-1.671-1.097-2.649l2.699-2.699zM1.536 18.789h8.666c1.382 0 2.074 1.671 1.097 2.648l-2.699 2.699c2.021 1.892 4.644 2.93 7.426 2.927 5.004-0.004 9.329-3.435 10.523-8.2 0.087-0.347 0.396-0.591 0.753-0.591h3.704c0.485 0 0.853 0.44 0.763 0.916-1.399 7.427-7.92 13.046-15.754 13.046-4.295 0-8.196-1.69-11.074-4.44l-2.309 2.309c-0.977 0.977-2.648 0.285-2.648-1.097v-8.666c0-0.857 0.695-1.551 1.551-1.551z"></path>
</svg>
