<!-- Generated by IcoMoon.io -->
<svg version="1.1" xmlns="http://www.w3.org/2000/svg" width="32" height="32" viewBox="0 0 32 32">
<path d="M31.041 7.181l-6.003-6.003c-0.622-0.622-1.48-1.006-2.429-1.006h-19.189c-1.897 0-3.435 1.538-3.435 3.435v25.192c0 1.897 1.538 3.435 3.435 3.435h25.192c1.897 0 3.435-1.538 3.435-3.435v-19.189c0-0.949-0.384-1.807-1.006-2.429v0zM19.451 3.607v5.725h-9.161v-5.726h9.161zM28.182 28.799h-24.333c-0.237 0-0.429-0.192-0.429-0.429v0-24.333c0-0.237 0.192-0.429 0.429-0.429v0h3.006v7.443c0 0.949 0.769 1.718 1.718 1.718h12.596c0.949 0 1.718-0.769 1.718-1.718v-7.165l5.6 5.6c0.078 0.078 0.126 0.185 0.126 0.304 0 0 0 0 0 0v0 18.581c0 0.237-0.192 0.429-0.429 0.429v0zM16.016 14.486c-3.473 0-6.298 2.825-6.298 6.298s2.825 6.298 6.298 6.298 6.298-2.825 6.298-6.298-2.825-6.298-6.298-6.298zM16.016 23.646c-1.579 0-2.863-1.284-2.863-2.863s1.284-2.863 2.863-2.863 2.863 1.284 2.863 2.863-1.284 2.863-2.863 2.863z"></path>
</svg>
