<!-- Generated by IcoMoon.io -->
<svg version="1.1" xmlns="http://www.w3.org/2000/svg" width="32" height="32" viewBox="0 0 32 32">
<path d="M31.053 27.457l-7.595-6.459c-0.785-0.707-1.625-1.031-2.303-1 1.793-2.1 2.876-4.824 2.876-7.802 0-6.64-5.383-12.023-12.023-12.023s-12.023 5.383-12.023 12.023 5.383 12.023 12.023 12.023c2.978 0 5.702-1.083 7.802-2.876-0.031 0.678 0.293 1.518 1 2.303l6.459 7.595c1.106 1.229 2.913 1.332 4.015 0.23s0.999-2.909-0.23-4.015zM12.008 20.211c-4.427 0-8.016-3.589-8.016-8.016s3.589-8.016 8.016-8.016 8.016 3.589 8.016 8.016-3.589 8.016-8.016 8.016z"></path>
</svg>
