<!-- Generated by IcoMoon.io -->
<svg version="1.1" xmlns="http://www.w3.org/2000/svg" width="32" height="32" viewBox="0 0 32 32">
<path d="M16.016 3.077l13.436 26.778h-26.871l13.436-26.778zM16.016 0.172c-0.691 0-1.382 0.466-1.906 1.398l-13.685 27.276c-1.048 1.864-0.157 3.389 1.982 3.389h27.219c2.139 0 3.031-1.525 1.982-3.389h0l-13.685-27.276c-0.524-0.932-1.215-1.398-1.906-1.398v0zM18.020 26.223c0 1.107-0.897 2.004-2.004 2.004s-2.004-0.897-2.004-2.004c0-1.107 0.897-2.004 2.004-2.004s2.004 0.897 2.004 2.004zM16.016 22.215c-1.107 0-2.004-0.897-2.004-2.004v-6.012c0-1.107 0.897-2.004 2.004-2.004s2.004 0.897 2.004 2.004v6.012c0 1.107-0.897 2.004-2.004 2.004z"></path>
</svg>
