<?xml version="1.0" standalone="no"?>
<!DOCTYPE svg PUBLIC "-//W3C//DTD SVG 1.1//EN" "http://www.w3.org/Graphics/SVG/1.1/DTD/svg11.dtd" >
<svg xmlns="http://www.w3.org/2000/svg">
<metadata>Generated by IcoMoon</metadata>
<defs>
<font id="icomoon" horiz-adv-x="1024">
<font-face units-per-em="1024" ascent="870.850439882698" descent="-153.14956011730206" />
<missing-glyph horiz-adv-x="1024" />
<glyph unicode="&#x20;" horiz-adv-x="0" d="" />
<glyph unicode="&#xe900;" glyph-name="minimize" d="M962.817-86.929h-898.631c-35.505 0-64.189 28.684-64.189 64.189s28.684 64.189 64.189 64.189h898.631c35.505 0 64.189-28.684 64.189-64.189s-28.684-64.189-64.189-64.189z" />
<glyph unicode="&#xe901;" glyph-name="maximize" d="M928.907 793.932h-832.813c-53.052 0-96.094-43.042-96.094-96.094v-704.688c0-53.052 43.042-96.094 96.094-96.094h832.813c53.052 0 96.094 43.042 96.094 96.094v704.688c0 53.052-43.042 96.094-96.094 96.094zM928.907 5.161c0-6.605-5.404-12.013-12.013-12.013h-808.791c-6.605 0-12.013 5.404-12.013 12.013v468.457h832.813v-468.457z" />
<glyph unicode="&#xe902;" glyph-name="close" d="M670.661 345.494l237.219 237.219c29.112 29.112 29.112 76.311 0 105.441l-52.719 52.719c-29.112 29.112-76.311 29.112-105.441 0l-237.219-237.219-237.219 237.219c-29.112 29.112-76.311 29.112-105.441 0l-52.719-52.719c-29.112-29.112-29.112-76.311 0-105.441l237.219-237.219-237.219-237.219c-29.112-29.112-29.112-76.311 0-105.441l52.719-52.719c29.112-29.112 76.328-29.112 105.441 0l237.219 237.219 237.219-237.219c29.112-29.112 76.328-29.112 105.441 0l52.719 52.719c29.112 29.112 29.112 76.311 0 105.441l-237.219 237.219z" />
<glyph unicode="&#xe903;" glyph-name="help" d="M513.442 857.994c-159.794 0-263.293-65.47-344.55-182.23-14.74-21.181-10.196-50.221 10.366-65.812l86.36-65.482c20.766-15.745 50.313-12.064 66.571 8.304 50.147 62.823 87.345 98.995 165.676 98.995 61.588 0 137.768-39.637 137.768-99.359 0-45.148-37.27-68.335-98.082-102.428-70.915-39.759-164.759-89.239-164.759-213.018v-19.595c0-26.536 21.511-48.047 48.047-48.047h145.084c26.536 0 48.047 21.511 48.047 48.047v11.557c0 85.804 250.781 89.377 250.781 321.568 0.002 174.859-181.379 307.5-351.307 307.5zM493.381 110.346c-76.467 0-138.677-62.211-138.677-138.677s62.211-138.675 138.677-138.675 138.677 62.211 138.677 138.677-62.211 138.675-138.677 138.675z" />
<glyph unicode="&#xe904;" glyph-name="info" d="M448.376 553.9c0 26.452 21.642 48.094 48.094 48.094h32.062c26.452 0 48.094-21.642 48.094-48.094v-32.062c0-26.452-21.642-48.094-48.094-48.094h-32.062c-26.452 0-48.094 21.642-48.094 48.094v32.062zM640.752 88.993h-256.5v64.126h64.126v192.376h-64.126v64.126h192.376v-256.5h64.126zM512.5 858.495c-283.323 0-513.001-229.678-513.001-513.001s229.678-513.001 513.001-513.001 513.001 229.678 513.001 513.001-229.678 513.001-513.001 513.001zM512.5-71.32c-230.2 0-416.814 186.614-416.814 416.814s186.614 416.814 416.814 416.814 416.814-186.614 416.814-416.814-186.614-416.814-416.814-416.814z" />
<glyph unicode="&#xe905;" glyph-name="warning" d="M512.501 765.541l429.941-856.899h-859.885l429.943 856.899zM512.501 858.496c-22.114 0-44.226-14.912-61.004-44.736l-437.929-872.816c-33.552-59.648-5.010-108.452 63.428-108.452h871.009c68.434 0 96.982 48.804 63.424 108.452h0.002l-437.929 872.816c-16.774 29.824-38.888 44.736-61.002 44.736v0zM576.627 24.869c0-35.416-28.71-64.126-64.126-64.126s-64.126 28.71-64.126 64.126c0 35.416 28.71 64.126 64.126 64.126s64.126-28.71 64.126-64.126zM512.501 153.119c-35.416 0-64.126 28.71-64.126 64.126v192.376c0 35.416 28.71 64.126 64.126 64.126s64.126-28.71 64.126-64.126v-192.376c0-35.416-28.71-64.126-64.126-64.126z" />
<glyph unicode="&#xe906;" glyph-name="check" d="M347.815-22.391l-333.777 333.777c-20.054 20.054-20.054 52.565 0 72.621l72.619 72.621c20.054 20.056 52.567 20.056 72.621 0l224.848-224.846 481.599 481.597c20.054 20.054 52.567 20.054 72.621 0l72.619-72.621c20.054-20.054 20.054-52.565 0-72.621l-590.529-590.531c-20.056-20.054-52.567-20.054-72.621 0.002z" />
<glyph unicode="&#xe907;" glyph-name="eye" horiz-adv-x="1155" d="M1148.274 374.78c-108.778 212.241-324.129 355.842-570.71 355.842s-461.992-143.7-570.71-355.862c-4.399-8.519-6.98-18.596-6.98-29.277s2.581-20.755 7.15-29.64l-0.17 0.363c108.778-212.241 324.129-355.842 570.71-355.842s461.992 143.7 570.71 355.862c4.399 8.519 6.98 18.596 6.98 29.277s-2.581 20.755-7.15 29.64l0.17-0.363zM577.565 56.65c-159.525 0-288.846 129.32-288.846 288.846s129.32 288.846 288.846 288.846c159.525 0 288.846-129.32 288.846-288.846v0c0-0.041 0-0.091 0-0.14 0-159.448-129.257-288.705-288.705-288.705-0.049 0-0.098 0-0.147 0h0.007zM577.565 538.060c-18.184-0.261-35.621-3.021-52.122-7.95l1.352 0.346c11.664-15.706 18.674-35.479 18.674-56.886 0-53.010-42.972-95.982-95.982-95.982-21.409 0-41.179 7.009-57.145 18.856l0.257-0.182c-4.259-15.092-6.71-32.424-6.71-50.326 0-106.107 86.016-192.122 192.122-192.122s192.122 86.016 192.122 192.122c0 106.107-86.016 192.122-192.122 192.122-0.159 0-0.317 0-0.476-0.001h0.025z" />
<glyph unicode="&#xe908;" glyph-name="eye-slash" horiz-adv-x="1283" d="M641.621 56.645c-152.145 0-275.306 117.765-286.639 267.001l-210.415 162.616c-27.661-34.702-53.116-71.39-73.656-111.507-4.399-8.519-6.98-18.596-6.98-29.277s2.581-20.755 7.15-29.64l-0.17 0.363c108.778-212.241 324.129-355.842 570.71-355.842 53.979 0 106.050 8.024 156.237 20.98l-104.085 80.536c-15.595-3.16-33.597-5.058-52.010-5.234l-0.143-0.001zM1271.102-59.896l-221.749 171.381c66.513 56.305 121.155 124.282 161.232 201.068l1.745 3.672c4.399 8.519 6.98 18.596 6.98 29.277s-2.581 20.755-7.15 29.64l0.17-0.363c-108.778 212.241-324.129 355.842-570.71 355.842-108.375-0.135-210.179-28.14-298.668-77.231l3.163 1.612-255.187 197.237c-5.38 4.218-12.248 6.766-19.709 6.766-10.271 0-19.415-4.825-25.29-12.331l-0.053-0.070-39.374-50.687c-4.212-5.378-6.757-12.241-6.757-19.696 0-10.266 4.821-19.407 12.322-25.283l0.070-0.053 1180.174-912.13c5.38-4.218 12.248-6.766 19.709-6.766 10.271 0 19.415 4.825 25.29 12.331l0.053 0.070 39.394 50.687c4.208 5.376 6.749 12.236 6.749 19.687 0 10.272-4.827 19.417-12.334 25.292l-0.070 0.053zM902.584 224.937l-78.831 60.938c6.339 17.726 10.137 38.179 10.429 59.48l0.001 0.134c0.010 0.745 0.016 1.624 0.016 2.502 0 104.976-85.1 190.076-190.076 190.076-18.986 0-37.318-2.784-54.617-7.965l1.345 0.345c11.631-15.617 18.635-35.278 18.674-56.576v-0.009c-0.328-7.274-1.435-14.14-3.242-20.715l0.153 0.658-147.652 114.113c49.125 41.27 113.044 66.362 182.824 66.415h0.011c0.047 0 0.104 0 0.16 0 159.437 0 288.685-129.248 288.685-288.685 0-0.056 0-0.112 0-0.168v0.008c0-43.386-10.61-83.826-27.881-120.574z" />
<glyph unicode="&#xe909;" glyph-name="edit" d="M865.19 858.495c88.536 0 160.313-71.774 160.313-160.313 0-36.090-11.934-69.394-32.062-96.188l-64.126-64.126-224.438 224.438 64.126 64.126c26.794 20.13 60.096 32.062 96.188 32.062zM63.625 121.055l-64.126-288.564 288.564 64.126 593.158 593.158-224.438 224.438-593.158-593.158zM716.476 494.206l-448.876-448.876-55.264 55.264 448.876 448.876 55.264-55.264z" />
<glyph unicode="&#xe90a;" glyph-name="duplicate" d="M640.752 601.994v256.5h-448.876l-192.376-192.376v-577.127h384.751v-256.5h641.252v769.502h-384.751zM191.875 767.808v-101.688h-101.688l101.688 101.688zM63.625 153.118v448.876h192.376v192.376h320.626v-192.376l-192.376-192.376v-256.5h-320.626zM576.625 511.308v-101.688h-101.688l101.688 101.688zM961.376-103.383h-513.001v448.876h192.376v192.376h320.626v-641.252z" />
<glyph unicode="&#xe90b;" glyph-name="delete" d="M159.811 537.87v-641.252c0-35.268 28.856-64.126 64.126-64.126h577.127c35.268 0 64.126 28.856 64.126 64.126v641.252h-705.377zM352.187-39.257h-64.126v448.876h64.126v-448.876zM480.437-39.257h-64.126v448.876h64.126v-448.876zM608.687-39.257h-64.126v448.876h64.126v-448.876zM736.938-39.257h-64.126v448.876h64.126v-448.876zM881.22 730.244h-208.407v80.156c0 26.452-21.642 48.094-48.094 48.094h-224.438c-26.452 0-48.094-21.642-48.094-48.094v-80.156h-208.407c-26.452 0-48.094-21.642-48.094-48.094v-80.156h833.627v80.156c0 26.452-21.642 48.094-48.094 48.094zM608.687 730.244h-192.376v63.322h192.376v-63.322z" />
<glyph unicode="&#xe90c;" glyph-name="reload" d="M749.802 599.346c-64.667 60.55-148.589 93.743-237.62 93.664-160.227-0.141-298.551-110-336.743-262.396-2.78-11.094-12.663-18.927-24.101-18.927h-118.535c-15.51 0-27.294 14.081-24.424 29.324 44.758 237.677 253.434 417.485 504.116 417.485 137.452 0 262.275-54.065 354.374-142.081l73.878 73.878c31.277 31.277 84.75 9.124 84.75-35.105v-277.309c0-27.419-22.228-49.645-49.645-49.645h-277.309c-44.229 0-66.382 53.473-35.105 84.752l86.36 86.359zM49.141 262.75h277.309c44.229 0 66.382-53.473 35.105-84.752l-86.36-86.36c64.667-60.552 148.593-93.745 237.629-93.664 160.143 0.143 298.524 109.93 336.736 262.394 2.78 11.094 12.663 18.927 24.101 18.927h118.538c15.51 0 27.294-14.081 24.424-29.324-44.761-237.673-253.436-417.48-504.118-417.48-137.452 0-262.275 54.065-354.374 142.081l-73.878-73.878c-31.277-31.277-84.75-9.124-84.75 35.105v277.309c0 27.419 22.228 49.645 49.645 49.645z" />
<glyph unicode="&#xe90d;" glyph-name="import" d="M-0.501-55.289h1026.003v-64.126h-1026.003zM1025.502 72.962v-64.126h-1026.003v64.126l128.25 256.5h256.5v-128.25h256.5v128.25h256.5zM223.938 521.838l288.564 288.564 288.564-288.564h-224.438v-256.5h-128.25v256.5z" />
<glyph unicode="&#xe90e;" glyph-name="export" d="M897.25 345.493h-160.312l-224.438-224.438-224.438 224.438h-160.312l-128.25-256.5v-64.126h1026.002v64.126l-128.25 256.5zM-0.501-39.257h1026.002v-64.126h-1026.002v64.126zM576.624 537.869v256.5h-128.25v-256.5h-224.438l288.564-288.564 288.564 288.564h-224.438z" />
<glyph unicode="&#xe90f;" glyph-name="search" d="M993.7-14.609l-243.026 206.699c-25.125 22.61-51.992 32.99-73.696 31.988 57.368 67.201 92.022 154.381 92.022 249.665 0 212.493-172.258 384.751-384.751 384.751-212.491 0-384.751-172.258-384.751-384.751s172.258-384.751 384.751-384.751c95.284 0 182.464 34.654 249.665 92.024-1.002-21.704 9.378-48.572 31.988-73.696l206.699-243.026c35.393-39.322 93.204-42.638 128.47-7.37s31.954 93.080-7.368 128.47zM384.247 217.239c-141.66 0-256.5 114.84-256.5 256.5s114.84 256.5 256.5 256.5 256.5-114.84 256.5-256.5-114.838-256.5-256.5-256.5z" />
<glyph unicode="&#xe910;" glyph-name="calendar" d="M352.187 473.744h128.25v-128.25h-128.25zM544.563 473.744h128.25v-128.25h-128.25zM736.938 473.744h128.25v-128.25h-128.25zM159.811 88.993h128.25v-128.25h-128.25zM352.187 88.993h128.25v-128.25h-128.25zM544.563 88.993h128.25v-128.25h-128.25zM352.187 281.368h128.25v-128.25h-128.25zM544.563 281.368h128.25v-128.25h-128.25zM736.938 281.368h128.25v-128.25h-128.25zM159.811 281.368h128.25v-128.25h-128.25zM865.189 858.495v-64.126h-128.25v64.126h-448.876v-64.126h-128.25v64.126h-128.25v-1026.003h961.877v1026.003h-128.25zM929.314-103.383h-833.627v705.377h833.627v-705.377z" />
<glyph unicode="&#xe911;" glyph-name="save" d="M993.304 634.193l-192.105 192.105c-19.893 19.893-47.374 32.197-77.731 32.197h-614.041c-60.712 0-109.928-49.216-109.928-109.928v-806.145c0-60.712 49.216-109.928 109.928-109.928h806.145c60.712 0 109.928 49.216 109.928 109.928v614.041c0 30.357-12.304 57.837-32.197 77.731v0zM622.428 748.566v-183.216h-293.144v183.216h293.144zM901.83-57.581h-778.665c-7.588 0-13.74 6.153-13.74 13.74v0 778.665c0 7.588 6.153 13.74 13.74 13.74v0h96.188v-238.179c0-30.357 24.608-54.965 54.965-54.965h403.074c30.357 0 54.965 24.608 54.965 54.965v229.29l179.192-179.192c2.485-2.486 4.024-5.922 4.024-9.715 0-0.001 0-0.001 0-0.002v0-594.607c0-7.588-6.153-13.74-13.74-13.74v0zM512.497 400.457c-111.127 0-201.538-90.409-201.538-201.538s90.409-201.538 201.538-201.538 201.538 90.409 201.538 201.538-90.409 201.538-201.538 201.538zM512.497 107.314c-50.512 0-91.607 41.095-91.607 91.607s41.095 91.607 91.607 91.607 91.607-41.095 91.607-91.607-41.095-91.607-91.607-91.607z" />
<glyph unicode="&#xe912;" glyph-name="loader" d="M1009.529 329.466c-1.28 66.992-15.814 133.778-42.66 194.842-26.756 61.12-65.59 116.486-113.264 162.236-47.645 45.786-104.148 81.98-165.306 105.858-61.124 23.97-126.844 35.422-191.772 34.032-64.936-1.284-129.585-15.404-188.702-41.436-59.164-25.946-112.762-63.594-157.040-109.79-44.31-46.172-79.314-100.905-102.386-160.11-23.16-59.178-34.194-122.76-32.81-185.632 1.288-62.882 14.994-125.392 40.212-182.562 25.138-57.212 61.596-109.040 106.318-151.844 44.698-42.838 97.662-76.654 154.916-98.914 57.23-22.348 118.678-32.966 179.492-31.588 60.826 1.292 121.198 14.582 176.42 38.99 55.258 24.33 105.322 59.596 146.652 102.844 41.362 43.224 73.988 94.42 95.44 149.722 13.060 33.524 21.922 68.534 26.594 104.001 1.248-0.072 2.502-0.12 3.77-0.12 35.416 0 64.126 28.708 64.126 64.126 0 1.8-0.094 3.578-0.238 5.342h0.238zM907.636 159.186c-23.518-53.306-57.596-101.598-99.372-141.456-41.752-39.888-91.178-71.326-144.526-91.97-53.332-20.718-110.506-30.512-167.21-29.138-56.714 1.3-112.816 13.762-164.14 36.546-51.35 22.71-97.875 55.598-136.26 95.9-38.413 40.276-68.662 87.936-88.494 139.33-19.908 51.384-29.286 106.422-27.918 161.070 1.304 54.658 13.354 108.624 35.322 157.998 21.9 49.396 53.602 94.154 92.426 131.066 38.806 36.94 84.696 65.998 134.136 85.022 49.434 19.098 102.336 28.060 154.928 26.696 52.602-1.308 104.432-12.944 151.858-34.1 47.444-21.092 90.432-51.602 125.87-88.956 35.466-37.33 63.334-81.453 81.55-128.94 18.284-47.484 26.834-98.25 25.474-148.786h0.238c-0.144-1.764-0.238-3.542-0.238-5.342 0-33.076 25.040-60.292 57.198-63.748-6.236-34.89-16.562-68.952-30.84-101.19z" />
<glyph unicode="&#xe913;" glyph-name="filter-solid" d="M7.8 754.2c13.2 28 41.2 45.8 72.2 45.8h864c31 0 59-17.8 72.2-45.8s9.2-61-10.4-85l-365.8-447v-254.2c0-24.2-13.6-46.4-35.4-57.2s-47.6-8.6-67 6l-128 96c-16.2 12-25.6 31-25.6 51.2v158.2l-366 447.2c-19.4 23.8-23.6 57-10.2 84.8z" />
</font>
</defs>
</svg>
